<svg width="715" height="135" viewBox="0 0 715 135" fill="none" xmlns="http://www.w3.org/2000/svg">
<g filter="url(#filter0_d_238_57)">
<path d="M1.61172 90.8C3.69172 90.8 5.45172 90.08 6.89172 88.64C8.41172 87.12 9.21172 85.32 9.29172 83.24V16.64C9.21172 13.76 7.89172 11.6 5.33172 10.16C4.21172 9.51999 2.97172 9.19999 1.61172 9.19999H0.0517191V7.99999H36.5317L36.4117 9.19999H34.9717C32.8917 9.19999 31.0917 9.91999 29.5717 11.36C28.0517 12.8 27.2917 14.56 27.2917 16.64V83.24C27.2917 85.32 28.0517 87.12 29.5717 88.64C31.0917 90.08 32.8917 90.8 34.9717 90.8H36.4117L36.5317 92H0.0517191V90.8H1.61172ZM120.772 112.4C114.932 115.44 109.612 116.96 104.812 116.96C100.012 116.96 95.6917 116.28 91.8517 114.92C82.3317 111.48 72.6117 103.6 62.6917 91.28L31.1317 52.4L59.5717 14.72C60.2117 13.92 60.5317 13.2 60.5317 12.56C60.5317 11.92 60.4117 11.36 60.1717 10.88C59.5317 9.67999 58.4117 9.07999 56.8117 9.07999H55.6117V7.99999H83.0917V9.07999H82.6117C77.2517 9.07999 72.8917 11 69.5317 14.84L46.1317 42.68L78.7717 83.24C86.0517 92.84 92.8917 99.8 99.2917 104.12C105.692 108.44 112.812 110.8 120.652 111.2L120.772 112.4ZM92.9008 90.8C94.9808 90.8 96.7408 90.08 98.1808 88.64C99.7008 87.12 100.501 85.32 100.581 83.24V16.4C100.341 13.6 99.0208 11.52 96.6208 10.16C95.4208 9.51999 94.1808 9.19999 92.9008 9.19999H91.3408V7.99999H125.061C128.581 7.99999 131.661 7.72 134.301 7.16C136.941 6.6 138.661 6.15999 139.461 5.83999V26.84H138.141V25.4C138.221 21.8 137.181 18.92 135.021 16.76C132.941 14.52 130.101 13.32 126.501 13.16H118.581V48.08H137.661C140.621 48 143.061 47 144.981 45.08C146.901 43.08 147.861 40.64 147.861 37.76V36.68H148.941V64.4H147.861V63.44C147.861 60.48 146.901 58.04 144.981 56.12C143.061 54.2 140.661 53.2 137.781 53.12H118.581V86.84H141.981C147.821 86.84 152.701 85.16 156.621 81.8C160.621 78.44 163.581 73.68 165.501 67.52H166.701L161.061 92H91.3408V90.8H92.9008ZM151.269 1.04C152.549 0.959994 154.589 0.919992 157.389 0.919992C160.109 0.919992 163.709 1.51999 168.189 2.72C172.749 3.84 176.949 5.64 180.789 8.11999C184.629 10.6 188.149 13.6 191.349 17.12C197.269 23.68 201.909 31.56 205.269 40.76C210.069 27.08 216.309 16.6 223.989 9.32C229.829 3.8 236.269 1.04 243.309 1.04C243.629 1.04 243.949 1.04 244.269 1.04V2.24C240.269 2.32 236.109 4.43999 231.789 8.59999C227.549 12.68 223.829 17.64 220.629 23.48C217.429 29.32 214.709 35.4 212.469 41.72C210.309 48.04 209.029 53.52 208.629 58.16V83.24C208.629 85.24 209.349 87 210.789 88.52C212.309 90.04 214.149 90.8 216.309 90.8H217.869V92H181.389V90.8H182.949C185.029 90.8 186.789 90.08 188.229 88.64C189.749 87.12 190.549 85.32 190.629 83.24V58.04C189.669 49.4 186.789 40.24 181.989 30.56C176.469 19.36 170.269 11.4 163.389 6.68C159.389 3.87999 155.349 2.39999 151.269 2.24V1.04ZM307.268 28.64C307.268 32.4 306.308 35.76 304.388 38.72C302.548 41.68 300.148 43.72 297.188 44.84C306.468 45.32 313.228 48.96 317.468 55.76C319.628 59.2 320.708 63.44 320.708 68.48C320.708 73.52 318.748 78.12 314.828 82.28C310.988 86.44 306.068 89.4 300.068 91.16C294.068 92.92 287.748 93.8 281.108 93.8C264.548 93.8 252.708 89.4 245.588 80.6C241.028 75 238.748 67.44 238.748 57.92C238.748 56.32 238.828 54.72 238.988 53.12L240.188 53C240.748 66.76 245.668 76.6 254.948 82.52V16.64C254.868 13.68 253.548 11.52 250.988 10.16C249.868 9.51999 248.628 9.19999 247.268 9.19999H245.708V7.99999H276.188C285.068 7.99999 292.468 9.79999 298.388 13.4C304.308 16.92 307.268 22 307.268 28.64ZM276.308 88.16C283.748 88.16 289.548 86.2 293.708 82.28C297.948 78.36 300.068 73.2 300.068 66.8C300.068 62.8 299.308 59.44 297.788 56.72C296.348 53.92 294.428 51.84 292.028 50.48C287.628 47.84 282.628 46.52 277.028 46.52V45.44C279.588 45.44 281.748 44.52 283.508 42.68C286.548 39.48 288.068 35.12 288.068 29.6C288.068 24.08 286.828 20 284.348 17.36C281.948 14.72 278.148 13.32 272.948 13.16V88.04C274.068 88.12 275.188 88.16 276.308 88.16ZM438.236 113.96C429.516 118.36 420.676 119.08 411.716 116.12C402.196 113.08 393.996 106.6 387.116 96.68C383.436 91.4 380.276 85.28 377.636 78.32L373.796 68.12H345.476L339.116 83.24C338.716 84.28 338.516 85.12 338.516 85.76C338.516 86.4 338.636 87.12 338.876 87.92C339.196 88.64 339.796 89.32 340.676 89.96C341.636 90.52 342.676 90.8 343.796 90.8H344.756V92H319.076V90.8H320.156C321.996 90.8 323.796 90.28 325.556 89.24C327.396 88.12 328.916 86.48 330.116 84.32L356.876 23.24C353.756 16.2 350.436 11.36 346.916 8.72C343.956 6.47999 341.116 5.35999 338.396 5.35999C335.756 5.35999 333.276 5.75999 330.956 6.56L330.716 5.35999C336.476 2.39999 341.996 0.919992 347.276 0.919992C353.836 0.919992 359.716 3.47999 364.916 8.59999C370.036 13.64 374.556 20.92 378.476 30.44L395.876 73.4C402.436 89.64 409.156 100.8 416.036 106.88C418.836 109.36 421.716 111.08 424.676 112.04C427.636 113 430.116 113.48 432.116 113.48C434.196 113.48 436.196 113.24 438.116 112.76L438.236 113.96ZM347.516 62.96H371.996L363.596 40.76C363.196 39.64 362.636 38.12 361.916 36.2C361.196 34.2 360.716 32.8 360.476 32L347.516 62.96ZM443.953 38.36C442.513 35.32 441.793 32.44 441.793 29.72C441.793 26.92 442.153 24.36 442.873 22.04C443.593 19.64 444.793 17.32 446.473 15.08C448.153 12.76 450.513 10.84 453.553 9.32C457.713 7.16 462.713 6.08 468.553 6.08C476.233 6.08 483.513 8.04 490.393 11.96C499.433 17.08 505.713 24.16 509.233 33.2C511.233 38.16 512.233 43.48 512.233 49.16C512.233 62.52 507.393 73.28 497.713 81.44C488.113 89.6 475.553 93.68 460.033 93.68C444.593 93.68 431.993 89.6 422.233 81.44C412.553 73.28 407.713 62.56 407.713 49.28C407.713 39.36 410.513 30.76 416.113 23.48C421.793 16.12 429.433 11.12 439.033 8.48L439.753 9.56C435.673 13 432.593 18.04 430.513 24.68C428.433 31.32 427.393 38.48 427.393 46.16C427.393 59.12 430.393 69.44 436.393 77.12C442.393 84.8 450.233 88.64 459.913 88.64C469.673 88.64 477.513 85.04 483.433 77.84C489.433 70.56 492.433 60.96 492.433 49.04C492.433 41.84 491.313 35.36 489.073 29.6C486.913 23.76 483.753 19.28 479.593 16.16C475.433 12.96 470.793 11.36 465.673 11.36C459.993 11.36 455.393 12.84 451.873 15.8C446.913 20.04 444.433 25.44 444.433 32C444.433 34.08 444.713 36.2 445.273 38.36H443.953ZM644.47 112.4C638.23 115.52 631.59 117.08 624.55 117.08C618.31 117.08 612.63 116.12 607.51 114.2C596.47 110.12 587.07 102.16 579.31 90.32C577.31 87.44 573.59 81.92 568.15 73.76C562.71 65.6 559.19 60.4 557.59 58.16C554.79 53.76 552.55 51.36 550.87 50.96V49.76C550.95 49.76 551.03 49.76 551.11 49.76C551.27 49.76 551.43 49.76 551.59 49.76C551.75 49.76 551.91 49.76 552.07 49.76C552.23 49.76 552.43 49.76 552.67 49.76C552.91 49.76 553.11 49.76 553.27 49.76C557.35 49.76 561.11 48.84 564.55 47C569.75 44.12 572.35 38.8 572.35 31.04C572.35 25.36 570.75 21 567.55 17.96C564.35 14.84 560.51 13.28 556.03 13.28H546.91V83.24C546.91 85.32 547.67 87.12 549.19 88.64C550.71 90.08 552.51 90.8 554.59 90.8H556.15V92H519.67V90.8H521.23C523.23 90.8 524.99 90.08 526.51 88.64C528.03 87.2 528.83 85.44 528.91 83.36V16.76C528.83 14.68 528.03 12.92 526.51 11.48C525.07 9.96 523.31 9.19999 521.23 9.19999H519.67V7.99999H560.83C571.15 7.99999 579.15 10.36 584.83 15.08C589.31 18.76 591.55 23.96 591.55 30.68C591.55 37.4 589.35 42.88 584.95 47.12C580.63 51.28 575.67 53.36 570.07 53.36C569.59 53.36 569.07 53.32 568.51 53.24C571.79 55 574.51 56.96 576.67 59.12C578.91 61.28 580.83 63.32 582.43 65.24C584.11 67.16 585.51 68.88 586.63 70.4C587.83 71.84 589.39 73.8 591.31 76.28C593.23 78.68 595.23 81.2 597.31 83.84C599.39 86.48 601.67 89.2 604.15 92C606.71 94.72 609.51 97.32 612.55 99.8C615.67 102.28 618.83 104.32 622.03 105.92C628.83 109.36 636.31 111.12 644.47 111.2V112.4ZM626.883 7.88C628.243 7.88 630.723 7.88 634.323 7.88C637.923 7.88 644.603 7.92 654.363 7.99999C668.523 8.16 679.723 12 687.963 19.52C696.203 26.96 700.323 37.16 700.323 50.12C700.323 63 696.203 73.2 687.963 80.72C679.723 88.24 668.523 92 654.363 92H610.803V90.8H612.363C614.363 90.8 616.083 90.12 617.523 88.76C619.043 87.32 619.883 85.6 620.043 83.6V13.4C611.083 14.04 604.443 16.12 600.123 19.64C597.963 21.32 596.283 23.04 595.083 24.8C593.803 26.56 592.563 28.68 591.363 31.16L590.163 30.68C592.083 22.68 596.083 16.92 602.163 13.4C608.323 9.79999 616.563 7.95999 626.883 7.88ZM652.923 86.96C661.483 86.96 668.243 83.64 673.203 77C678.243 70.36 680.763 61.36 680.763 50C680.763 38.64 678.243 29.68 673.203 23.12C668.243 16.56 661.563 13.28 653.163 13.28C653.083 13.28 653.003 13.28 652.923 13.28H638.043V86.96H652.923Z" fill="url(#paint0_linear_238_57)"/>
</g>
<defs>
<filter id="filter0_d_238_57" x="0.0517578" y="0.919983" width="714.271" height="133.64" filterUnits="userSpaceOnUse" color-interpolation-filters="sRGB">
<feFlood flood-opacity="0" result="BackgroundImageFix"/>
<feColorMatrix in="SourceAlpha" type="matrix" values="0 0 0 0 0 0 0 0 0 0 0 0 0 0 0 0 0 0 127 0" result="hardAlpha"/>
<feOffset dx="10" dy="10"/>
<feGaussianBlur stdDeviation="2"/>
<feComposite in2="hardAlpha" operator="out"/>
<feColorMatrix type="matrix" values="0 0 0 0 0 0 0 0 0 0 0 0 0 0 0 0 0 0 0.25 0"/>
<feBlend mode="normal" in2="BackgroundImageFix" result="effect1_dropShadow_238_57"/>
<feBlend mode="normal" in="SourceGraphic" in2="effect1_dropShadow_238_57" result="shape"/>
</filter>
<linearGradient id="paint0_linear_238_57" x1="267.271" y1="78.9606" x2="715.16" y2="82.1682" gradientUnits="userSpaceOnUse">
<stop stop-color="#FE6D7D"/>
<stop offset="0.354095" stop-color="#F857B4"/>
<stop offset="0.578362" stop-color="#F33EF7"/>
<stop offset="0.944465" stop-color="#8624F1"/>
</linearGradient>
</defs>
</svg>
