<svg width="338" height="88" viewBox="0 0 338 88" fill="none" xmlns="http://www.w3.org/2000/svg">
<g filter="url(#filter0_d_239_58)">
<path d="M4.379 1.63636H15.4159L41.3676 65.0241H42.2625L68.2142 1.63636H79.2512V78H70.6006V19.9815H69.8548L45.9912 78H37.6389L13.7753 19.9815H13.0296V78H4.379V1.63636ZM107.039 1.63636V78H97.7921V1.63636H107.039ZM187.029 25.5H177.782C177.235 22.8402 176.278 20.5035 174.911 18.4901C173.568 16.4766 171.928 14.7862 169.989 13.419C168.075 12.027 165.949 10.983 163.613 10.2869C161.276 9.59091 158.84 9.2429 156.305 9.2429C151.681 9.2429 147.492 10.4112 143.739 12.7479C140.01 15.0845 137.04 18.5273 134.827 23.0764C132.64 27.6254 131.546 33.206 131.546 39.8182C131.546 46.4304 132.64 52.011 134.827 56.56C137.04 61.109 140.01 64.5518 143.739 66.8885C147.492 69.2251 151.681 70.3935 156.305 70.3935C158.84 70.3935 161.276 70.0455 163.613 69.3494C165.949 68.6534 168.075 67.6218 169.989 66.2546C171.928 64.8626 173.568 63.1598 174.911 61.1463C176.278 59.108 177.235 56.7713 177.782 54.1364H187.029C186.333 58.0391 185.065 61.5316 183.226 64.614C181.386 67.6964 179.099 70.3189 176.365 72.4815C173.631 74.6193 170.561 76.2475 167.155 77.3661C163.774 78.4847 160.158 79.044 156.305 79.044C149.792 79.044 144 77.4531 138.929 74.2713C133.858 71.0895 129.868 66.5653 126.96 60.6989C124.051 54.8324 122.597 47.8722 122.597 39.8182C122.597 31.7642 124.051 24.804 126.96 18.9375C129.868 13.071 133.858 8.54687 138.929 5.36506C144 2.18324 149.792 0.592327 156.305 0.592327C160.158 0.592327 163.774 1.15163 167.155 2.27024C170.561 3.38885 173.631 5.02947 176.365 7.19211C179.099 9.3299 181.386 11.94 183.226 15.0224C185.065 18.0799 186.333 21.5724 187.029 25.5ZM201.972 78V1.63636H227.774C233.74 1.63636 238.637 2.65554 242.465 4.69389C246.294 6.70738 249.127 9.47905 250.967 13.0089C252.806 16.5387 253.726 20.5533 253.726 25.0526C253.726 29.5518 252.806 33.5415 250.967 37.0217C249.127 40.5018 246.306 43.2361 242.503 45.2248C238.699 47.1886 233.84 48.1705 227.923 48.1705H207.043V39.8182H227.625C231.702 39.8182 234.983 39.2216 237.469 38.0284C239.98 36.8352 241.794 35.1449 242.913 32.9574C244.056 30.745 244.628 28.1101 244.628 25.0526C244.628 21.995 244.056 19.3228 242.913 17.0359C241.769 14.7489 239.942 12.984 237.432 11.7411C234.921 10.4734 231.602 9.83949 227.476 9.83949H211.219V78H201.972ZM237.916 43.696L256.709 78H245.97L227.476 43.696H237.916ZM333.567 39.8182C333.567 47.8722 332.112 54.8324 329.204 60.6989C326.296 66.5653 322.306 71.0895 317.235 74.2713C312.164 77.4531 306.372 79.044 299.859 79.044C293.347 79.044 287.555 77.4531 282.484 74.2713C277.413 71.0895 273.423 66.5653 270.514 60.6989C267.606 54.8324 266.152 47.8722 266.152 39.8182C266.152 31.7642 267.606 24.804 270.514 18.9375C273.423 13.071 277.413 8.54687 282.484 5.36506C287.555 2.18324 293.347 0.592327 299.859 0.592327C306.372 0.592327 312.164 2.18324 317.235 5.36506C322.306 8.54687 326.296 13.071 329.204 18.9375C332.112 24.804 333.567 31.7642 333.567 39.8182ZM324.618 39.8182C324.618 33.206 323.512 27.6254 321.299 23.0764C319.112 18.5273 316.141 15.0845 312.388 12.7479C308.659 10.4112 304.483 9.2429 299.859 9.2429C295.236 9.2429 291.047 10.4112 287.294 12.7479C283.565 15.0845 280.594 18.5273 278.382 23.0764C276.195 27.6254 275.101 33.206 275.101 39.8182C275.101 46.4304 276.195 52.011 278.382 56.56C280.594 61.109 283.565 64.5518 287.294 66.8885C291.047 69.2251 295.236 70.3935 299.859 70.3935C304.483 70.3935 308.659 69.2251 312.388 66.8885C316.141 64.5518 319.112 61.109 321.299 56.56C323.512 52.011 324.618 46.4304 324.618 39.8182Z" fill="black"/>
</g>
<defs>
<filter id="filter0_d_239_58" x="0.379028" y="0.592346" width="337.188" height="86.4517" filterUnits="userSpaceOnUse" color-interpolation-filters="sRGB">
<feFlood flood-opacity="0" result="BackgroundImageFix"/>
<feColorMatrix in="SourceAlpha" type="matrix" values="0 0 0 0 0 0 0 0 0 0 0 0 0 0 0 0 0 0 127 0" result="hardAlpha"/>
<feOffset dy="4"/>
<feGaussianBlur stdDeviation="2"/>
<feComposite in2="hardAlpha" operator="out"/>
<feColorMatrix type="matrix" values="0 0 0 0 0 0 0 0 0 0 0 0 0 0 0 0 0 0 0.25 0"/>
<feBlend mode="normal" in2="BackgroundImageFix" result="effect1_dropShadow_239_58"/>
<feBlend mode="normal" in="SourceGraphic" in2="effect1_dropShadow_239_58" result="shape"/>
</filter>
</defs>
</svg>
